<?xml version="1.0" encoding="UTF-8"?>
<svg id="logo" class="logo" data-name="Horizontal Name" xmlns="http://www.w3.org/2000/svg" viewBox="0 0 531.31 112.41">
  <g id="tagline" class="logo-tagline">
    <path d="M141.71,106.79c-2.83,0-5.15-.87-6.78-2.44l1.46-1.65c1.34,1.26,3,2.07,5.35,2.07s4.48-1.15,4.48-3.58c0-1.88-.9-2.8-4.2-3.75-3.84-1.12-6.22-2.52-6.22-5.57s2.55-4.98,6.24-4.98c2.63,0,4.54.81,6.16,2.21l-1.46,1.57c-1.37-1.2-3-1.74-4.62-1.74-2.13,0-3.86.92-3.86,2.86,0,1.65,1.18,2.49,4.84,3.56,3.02.87,5.66,2.13,5.66,5.8,0,3.33-2.58,5.66-7.06,5.66Z" style="fill: #fff; stroke-width: 0px;"/>
    <path d="M165.29,99.09c0,4.54-2.24,7.7-6.36,7.7s-6.36-3.02-6.36-7.67,2.24-7.7,6.38-7.7,6.33,3.02,6.33,7.67ZM155.13,99.11c0,3.92,1.26,5.74,3.81,5.74s3.81-1.82,3.81-5.77-1.26-5.74-3.78-5.74-3.84,1.85-3.84,5.77Z" style="fill: #fff; stroke-width: 0px;"/>
    <path d="M182.85,86.29l-.76,1.76c-.95-.42-2.04-.62-3.16-.62-2.04,0-3.08.81-3.08,2.44v3h4.98l-.25,1.88h-4.73v11.73h-2.38v-11.73h-3.5v-1.88h3.5v-2.94c0-2.72,2.32-4.42,5.38-4.42,1.6,0,2.86.31,4,.78Z" style="fill: #fff; stroke-width: 0px;"/>
    <path d="M194.69,106.79c-3.16,0-4.96-1.85-4.96-4.42v-8.79h-3.39v-1.85h3.39v-3.33l2.35-.28v3.61h5.12l-.31,1.85h-4.82v8.76c0,1.62.81,2.49,2.83,2.49,1.09,0,2.04-.28,2.83-.7l.92,1.6c-1.04.67-2.58,1.06-3.98,1.06Z" style="fill: #fff; stroke-width: 0px;"/>
    <path d="M211.35,106.48l-1.93-10.81-2.07,10.81h-3.25l-2.66-14.76h2.38l1.9,13.3,2.35-11.42h2.77l2.21,11.42,1.9-13.3h2.27l-2.55,14.76h-3.33Z" style="fill: #fff; stroke-width: 0px;"/>
    <path d="M232.32,105.13l-.59,1.68c-1.26-.17-2.3-.76-2.69-2.1-1.06,1.37-2.72,2.07-4.62,2.07-2.97,0-4.76-1.79-4.76-4.54,0-3.02,2.44-4.73,6.89-4.73h2.18v-1.2c0-2.16-1.32-2.94-3.5-2.94-.98,0-2.32.22-3.84.76l-.64-1.79c1.82-.64,3.39-.92,4.84-.92,3.67,0,5.52,1.85,5.52,4.76v7.08c0,1.18.36,1.62,1.2,1.88ZM228.74,102.92v-3.78h-2.13c-3.25,0-4.42,1.18-4.42,3.08s.9,2.8,2.83,2.8c1.46,0,2.86-.78,3.72-2.1Z" style="fill: #fff; stroke-width: 0px;"/>
    <path d="M249.37,91.72l-.34,5.01h-1.9v-3.16h-.14c-2.27,0-3.89,1.62-4.84,4.87v6.22h3v1.82h-7.67v-1.82h2.32v-11.12h-2.32v-1.82h4.09l.45,3.5c1.12-2.41,2.63-3.81,5.29-3.81.81,0,1.43.14,2.07.31Z" style="fill: #fff; stroke-width: 0px;"/>
    <path d="M260.29,104.83c1.51,0,2.63-.45,3.95-1.32l1.09,1.57c-1.37,1.06-3.22,1.71-5.04,1.71-4.31,0-6.75-3.08-6.75-7.67s2.49-7.7,6.41-7.7,6.02,2.77,6.02,7.25c0,.5-.03.95-.06,1.26h-9.91c.11,3.42,2.02,4.9,4.28,4.9ZM256.01,98.13h7.67c-.06-3.16-1.46-4.79-3.7-4.79s-3.78,1.54-3.98,4.79Z" style="fill: #fff; stroke-width: 0px;"/>
    <path d="M290.87,95.7h7.17v1.99h-7.17v6.83h8.79v1.96h-11.2v-19.29h10.95l-.28,2.02h-8.26v6.5Z" style="fill: #fff; stroke-width: 0px;"/>
    <path d="M304.53,91.72h2.02l.2,2.07c1.18-1.51,3.14-2.38,4.87-2.38,2.88,0,4.14,1.62,4.14,4.37v10.7h-2.35v-8.96c0-3.02-.31-4.23-2.52-4.23-1.74,0-3.22,1.29-4,2.46v10.72h-2.35v-14.76Z" style="fill: #fff; stroke-width: 0px;"/>
    <path d="M334.04,92.39c-1.23.39-2.66.42-4.31.42,1.74.78,2.58,2.04,2.58,3.72,0,2.91-2.04,5.01-5.54,5.01-.98,0-1.57-.08-2.21-.31-.42.34-.76.9-.76,1.43,0,.7.45,1.26,1.96,1.26h2.66c2.97,0,5.21,1.71,5.21,4,0,2.88-2.55,4.48-7.03,4.48-4.7,0-6.22-1.46-6.22-4.45h2.13c0,1.74.78,2.55,4.09,2.55s4.65-.84,4.65-2.44c0-1.4-1.43-2.1-3.3-2.1h-2.63c-2.58,0-3.72-1.32-3.72-2.8,0-.92.56-1.88,1.62-2.58-1.68-.87-2.46-2.16-2.46-4.06,0-3,2.38-5.12,5.88-5.12,3.7,0,4.98-.5,6.72-1.23l.7,2.21ZM323.15,96.54c0,2.02,1.09,3.44,3.5,3.44,2.1,0,3.22-1.29,3.22-3.47s-1.09-3.36-3.28-3.36c-2.38,0-3.44,1.4-3.44,3.39Z" style="fill: #fff; stroke-width: 0px;"/>
    <path d="M345.61,104.6h4.14v1.88h-11.03v-1.88h4.54v-11h-4.4v-1.88h6.75v12.88ZM345.47,86.49c0,.95-.7,1.65-1.74,1.65s-1.68-.7-1.68-1.65.67-1.65,1.68-1.65,1.74.7,1.74,1.65Z" style="fill: #fff; stroke-width: 0px;"/>
    <path d="M354.93,91.72h2.02l.2,2.07c1.18-1.51,3.14-2.38,4.87-2.38,2.88,0,4.14,1.62,4.14,4.37v10.7h-2.35v-8.96c0-3.02-.31-4.23-2.52-4.23-1.74,0-3.22,1.29-4,2.46v10.72h-2.35v-14.76Z" style="fill: #fff; stroke-width: 0px;"/>
    <path d="M377.89,104.83c1.51,0,2.63-.45,3.95-1.32l1.09,1.57c-1.37,1.06-3.22,1.71-5.04,1.71-4.31,0-6.75-3.08-6.75-7.67s2.49-7.7,6.41-7.7,6.02,2.77,6.02,7.25c0,.5-.03.95-.06,1.26h-9.91c.11,3.42,2.02,4.9,4.28,4.9ZM373.61,98.13h7.67c-.06-3.16-1.46-4.79-3.7-4.79s-3.78,1.54-3.98,4.79Z" style="fill: #fff; stroke-width: 0px;"/>
    <path d="M394.69,104.83c1.51,0,2.63-.45,3.95-1.32l1.09,1.57c-1.37,1.06-3.22,1.71-5.04,1.71-4.31,0-6.75-3.08-6.75-7.67s2.49-7.7,6.41-7.7,6.02,2.77,6.02,7.25c0,.5-.03.95-.06,1.26h-9.91c.11,3.42,2.02,4.9,4.28,4.9ZM390.41,98.13h7.67c-.06-3.16-1.46-4.79-3.7-4.79s-3.78,1.54-3.98,4.79Z" style="fill: #fff; stroke-width: 0px;"/>
    <path d="M417.37,91.72l-.34,5.01h-1.9v-3.16h-.14c-2.27,0-3.89,1.62-4.84,4.87v6.22h3v1.82h-7.67v-1.82h2.32v-11.12h-2.32v-1.82h4.09l.45,3.5c1.12-2.41,2.63-3.81,5.29-3.81.81,0,1.43.14,2.07.31Z" style="fill: #fff; stroke-width: 0px;"/>
  </g>
  <line id="separator" class="logo-separator" x1="5.26" y1="70" x2="526.26" y2="70" style="fill: #fff; stroke: #fff; stroke-miterlimit: 10; stroke-width: 2px;"/>
  <g id="name" class="logo-name">
    <path d="M38.88,53.79h-6.05l-1.51-25.92c-.43-6.84-.43-15.48-.43-17.93l-8.35,34.92h-6.26L7.34,9.94c.14,2.74.22,11.74-.14,17.93l-1.3,25.92H0L2.81,4.18h8.71l8.06,33.99L27.29,4.18h8.79l2.81,49.61Z" style="fill: #fff; stroke-width: 0px;"/>
    <path d="M78.55,50.33l-1.51,4.32c-3.24-.43-5.9-1.94-6.91-5.4-2.74,3.53-6.99,5.33-11.88,5.33-7.63,0-12.24-4.61-12.24-11.67,0-7.78,6.26-12.17,17.71-12.17h5.62v-3.1c0-5.54-3.38-7.56-9-7.56-2.52,0-5.98.58-9.87,1.94l-1.66-4.61c4.68-1.66,8.71-2.38,12.46-2.38,9.43,0,14.19,4.75,14.19,12.24v18.22c0,3.02.94,4.18,3.1,4.82ZM69.34,44.64v-9.72h-5.47c-8.35,0-11.38,3.02-11.38,7.92s2.3,7.2,7.27,7.2c3.74,0,7.34-2.02,9.58-5.4Z" style="fill: #fff; stroke-width: 0px;"/>
    <path d="M111.38,54.58c-8.14,0-12.75-4.75-12.75-11.38v-22.61h-8.71v-4.75h8.71V7.27l6.05-.72v9.29h13.18l-.79,4.75h-12.38v22.54c0,4.18,2.09,6.41,7.27,6.41,2.81,0,5.26-.72,7.27-1.8l2.38,4.1c-2.66,1.73-6.62,2.74-10.22,2.74Z" style="fill: #fff; stroke-width: 0px;"/>
    <path d="M140.69,21.1c3.02-3.96,7.63-6.05,12.17-6.05,7.42,0,10.66,4.18,10.66,11.23v27.51h-6.05v-27.43c0-4.54-2.09-6.48-6.62-6.48-4.25,0-8.14,3.31-10.15,6.26v27.65h-6.05V.65l6.05-.65v21.1Z" style="fill: #fff; stroke-width: 0px;"/>
    <path d="M193.68,49.54c3.89,0,6.77-1.15,10.15-3.38l2.81,4.03c-3.53,2.74-8.28,4.39-12.96,4.39-11.09,0-17.35-7.92-17.35-19.73s6.41-19.8,16.49-19.8,15.48,7.13,15.48,18.65c0,1.3-.07,2.45-.14,3.24h-25.49c.29,8.79,5.18,12.6,11.02,12.6ZM182.66,32.33h19.73c-.14-8.14-3.74-12.31-9.5-12.31s-9.72,3.96-10.22,12.31Z" style="fill: #fff; stroke-width: 0px;"/>
    <path d="M240.62,53.79l-4.97-27.79-5.33,27.79h-8.35l-6.84-37.95h6.12l4.9,34.2,6.05-29.38h7.13l5.69,29.38,4.9-34.2h5.83l-6.55,37.95h-8.57Z" style="fill: #fff; stroke-width: 0px;"/>
    <path d="M290.18,10.22c.14,2.16.86,11.09.86,18.72v24.84h-5.83V4.18h8.5l17.79,43.78c-.07-2.02-.86-10.01-.86-18.94V4.18h5.83v49.61h-8.79l-17.5-43.56Z" style="fill: #fff; stroke-width: 0px;"/>
    <path d="M360.38,34.78c0,11.67-5.76,19.8-16.35,19.8s-16.34-7.78-16.34-19.73,5.76-19.8,16.42-19.8,16.27,7.78,16.27,19.73ZM334.24,34.85c0,10.08,3.24,14.76,9.79,14.76s9.79-4.68,9.79-14.83-3.24-14.76-9.72-14.76-9.87,4.75-9.87,14.83Z" style="fill: #fff; stroke-width: 0px;"/>
    <path d="M403.8,15.84l-.86,12.89h-4.9v-8.14h-.36c-5.83,0-10.01,4.18-12.46,12.53v15.99h7.7v4.68h-19.73v-4.68h5.98v-28.59h-5.98v-4.68h10.51l1.15,9c2.88-6.19,6.77-9.79,13.61-9.79,2.09,0,3.67.36,5.33.79Z" style="fill: #fff; stroke-width: 0px;"/>
    <path d="M448.36,25.56v28.23h-5.54v-27.22c0-4.82-.22-6.77-2.95-6.77-2.3,0-4.54,1.3-6.62,4.54v29.45h-5.62v-27.22c0-4.82-.22-6.77-2.95-6.77-2.38,0-4.54,1.3-6.62,4.54v29.45h-5.54V15.84h4.68l.43,4.46c2.02-2.95,4.39-5.26,8.21-5.26,2.88,0,5.69,1.15,6.84,5.04,2.09-3.02,4.54-5.04,8.35-5.04s7.34,1.8,7.34,10.51Z" style="fill: #fff; stroke-width: 0px;"/>
    <path d="M489.55,50.33l-1.51,4.32c-3.24-.43-5.9-1.94-6.91-5.4-2.74,3.53-6.99,5.33-11.88,5.33-7.63,0-12.24-4.61-12.24-11.67,0-7.78,6.26-12.17,17.71-12.17h5.62v-3.1c0-5.54-3.38-7.56-9-7.56-2.52,0-5.98.58-9.87,1.94l-1.66-4.61c4.68-1.66,8.71-2.38,12.46-2.38,9.43,0,14.19,4.75,14.19,12.24v18.22c0,3.02.94,4.18,3.1,4.82ZM480.33,44.64v-9.72h-5.47c-8.35,0-11.38,3.02-11.38,7.92s2.3,7.2,7.27,7.2c3.74,0,7.34-2.02,9.58-5.4Z" style="fill: #fff; stroke-width: 0px;"/>
    <path d="M502.43,15.84h5.18l.5,5.33c3.02-3.89,8.07-6.12,12.53-6.12,7.42,0,10.66,4.18,10.66,11.23v27.51h-6.05v-23.04c0-7.78-.79-10.87-6.48-10.87-4.46,0-8.28,3.31-10.3,6.34v27.58h-6.05V15.84Z" style="fill: #fff; stroke-width: 0px;"/>
  </g>
</svg>