<?xml version="1.0" encoding="UTF-8"?>
<svg id="test-logo" class="logo" xmlns="http://www.w3.org/2000/svg" viewBox="0 0 531.31 54.65">
  <g id="name" class="logo-name">
    <path d="M38.88,53.79h-6.05l-1.51-25.92c-.43-6.84-.43-15.48-.43-17.93l-8.35,34.92h-6.26L7.34,9.94c.14,2.74.22,11.74-.14,17.93l-1.3,25.92H0L2.81,4.18h8.71l8.06,33.99L27.29,4.18h8.79l2.81,49.61Z" style="fill: #fff; stroke-width: 0px;"/>
    <path d="M78.55,50.33l-1.51,4.32c-3.24-.43-5.9-1.94-6.91-5.4-2.74,3.53-6.99,5.33-11.88,5.33-7.63,0-12.24-4.61-12.24-11.67,0-7.78,6.26-12.17,17.71-12.17h5.62v-3.1c0-5.54-3.38-7.56-9-7.56-2.52,0-5.98.58-9.87,1.94l-1.66-4.61c4.68-1.66,8.71-2.38,12.46-2.38,9.43,0,14.19,4.75,14.19,12.24v18.22c0,3.02.94,4.18,3.1,4.82ZM69.34,44.64v-9.72h-5.47c-8.35,0-11.38,3.02-11.38,7.92s2.3,7.2,7.27,7.2c3.74,0,7.34-2.02,9.58-5.4Z" style="fill: #fff; stroke-width: 0px;"/>
    <path d="M111.38,54.58c-8.14,0-12.75-4.75-12.75-11.38v-22.61h-8.71v-4.75h8.71V7.27l6.05-.72v9.29h13.18l-.79,4.75h-12.38v22.54c0,4.18,2.09,6.41,7.27,6.41,2.81,0,5.26-.72,7.27-1.8l2.38,4.1c-2.66,1.73-6.62,2.74-10.22,2.74Z" style="fill: #fff; stroke-width: 0px;"/>
    <path d="M140.69,21.1c3.02-3.96,7.63-6.05,12.17-6.05,7.42,0,10.66,4.18,10.66,11.23v27.51h-6.05v-27.43c0-4.54-2.09-6.48-6.62-6.48-4.25,0-8.14,3.31-10.15,6.26v27.65h-6.05V.65l6.05-.65v21.1Z" style="fill: #fff; stroke-width: 0px;"/>
    <path d="M193.68,49.54c3.89,0,6.77-1.15,10.15-3.38l2.81,4.03c-3.53,2.74-8.28,4.39-12.96,4.39-11.09,0-17.35-7.92-17.35-19.73s6.41-19.8,16.49-19.8,15.48,7.13,15.48,18.65c0,1.3-.07,2.45-.14,3.24h-25.49c.29,8.79,5.18,12.6,11.02,12.6ZM182.66,32.33h19.73c-.14-8.14-3.74-12.31-9.5-12.31s-9.72,3.96-10.22,12.31Z" style="fill: #fff; stroke-width: 0px;"/>
    <path d="M240.62,53.79l-4.97-27.79-5.33,27.79h-8.35l-6.84-37.95h6.12l4.9,34.2,6.05-29.38h7.13l5.69,29.38,4.9-34.2h5.83l-6.55,37.95h-8.57Z" style="fill: #fff; stroke-width: 0px;"/>
    <path d="M290.18,10.22c.14,2.16.86,11.09.86,18.72v24.84h-5.83V4.18h8.5l17.79,43.78c-.07-2.02-.86-10.01-.86-18.94V4.18h5.83v49.61h-8.79l-17.5-43.56Z" style="fill: #fff; stroke-width: 0px;"/>
    <path d="M360.38,34.78c0,11.67-5.76,19.8-16.35,19.8s-16.34-7.78-16.34-19.73,5.76-19.8,16.42-19.8,16.27,7.78,16.27,19.73ZM334.24,34.85c0,10.08,3.24,14.76,9.79,14.76s9.79-4.68,9.79-14.83-3.24-14.76-9.72-14.76-9.87,4.75-9.87,14.83Z" style="fill: #fff; stroke-width: 0px;"/>
    <path d="M403.8,15.84l-.86,12.89h-4.9v-8.14h-.36c-5.83,0-10.01,4.18-12.46,12.53v15.99h7.7v4.68h-19.73v-4.68h5.98v-28.59h-5.98v-4.68h10.51l1.15,9c2.88-6.19,6.77-9.79,13.61-9.79,2.09,0,3.67.36,5.33.79Z" style="fill: #fff; stroke-width: 0px;"/>
    <path d="M448.36,25.56v28.23h-5.54v-27.22c0-4.82-.22-6.77-2.95-6.77-2.3,0-4.54,1.3-6.62,4.54v29.45h-5.62v-27.22c0-4.82-.22-6.77-2.95-6.77-2.38,0-4.54,1.3-6.62,4.54v29.45h-5.54V15.84h4.68l.43,4.46c2.02-2.95,4.39-5.26,8.21-5.26,2.88,0,5.69,1.15,6.84,5.04,2.09-3.02,4.54-5.04,8.35-5.04s7.34,1.8,7.34,10.51Z" style="fill: #fff; stroke-width: 0px;"/>
    <path d="M489.55,50.33l-1.51,4.32c-3.24-.43-5.9-1.94-6.91-5.4-2.74,3.53-6.99,5.33-11.88,5.33-7.63,0-12.24-4.61-12.24-11.67,0-7.78,6.26-12.17,17.71-12.17h5.62v-3.1c0-5.54-3.38-7.56-9-7.56-2.52,0-5.98.58-9.87,1.94l-1.66-4.61c4.68-1.66,8.71-2.38,12.46-2.38,9.43,0,14.19,4.75,14.19,12.24v18.22c0,3.02.94,4.18,3.1,4.82ZM480.33,44.64v-9.72h-5.47c-8.35,0-11.38,3.02-11.38,7.92s2.3,7.2,7.27,7.2c3.74,0,7.34-2.02,9.58-5.4Z" style="fill: #fff; stroke-width: 0px;"/>
    <path d="M502.43,15.84h5.18l.5,5.33c3.02-3.89,8.07-6.12,12.53-6.12,7.42,0,10.66,4.18,10.66,11.23v27.51h-6.05v-23.04c0-7.78-.79-10.87-6.48-10.87-4.46,0-8.28,3.31-10.3,6.34v27.58h-6.05V15.84Z" style="fill: #fff; stroke-width: 0px;"/>
  </g>
</svg>