<svg id="Layer_1" data-name="Layer 1" xmlns="http://www.w3.org/2000/svg" viewBox="0 0 1165.64 554.44"><defs><style>.cls-1{fill:#fff;}</style></defs><title>initials-03-03</title><path class="cls-1" d="M573.05,63.24a23.46,23.46,0,0,0-14.66,15q-3.9,11.09-3.9,35.82v323.1q0,24.75,3.9,35.83a23.44,23.44,0,0,0,14.66,15q10.76,3.9,34.2,5.21v13q-30-1.95-82.73-1.95-56,0-83.38,1.95v-13q23.46-1.31,34.2-5.21A23.42,23.42,0,0,0,490,473q3.9-11.09,3.91-35.83V88l-157,421.46H326.5L162.35,86.68V430.62q0,25.41,4.23,37.79t16.61,17.91q12.38,5.54,38.44,6.84v13q-23.46-1.95-66.44-1.95-39.1,0-60.58,1.95v-13q22.78-1.31,33.86-6.84t15-18.25q3.92-12.69,3.92-37.45V114q0-24.74-3.92-35.82a23.4,23.4,0,0,0-14.65-15Q118.06,59.34,94.61,58V45q21.48,1.95,60.58,2,33.87,0,55.36-2l143.3,377.15L493.91,47h30.61q52.76,0,82.73-2V58Q583.79,59.32,573.05,63.24Z"/><path class="cls-1" d="M1071,58q-22.79,1.29-33.87,6.84t-15,18.23q-3.91,12.7-3.91,37.45V509.44h-15L729.7,86.68V430.62q0,25.41,4.23,37.79a29.46,29.46,0,0,0,16.61,17.91q12.38,5.54,38.44,6.84v13q-23.46-1.95-66.44-1.95-39.09,0-60.58,1.95v-13q22.8-1.31,33.87-6.84t15-18.25q3.9-12.69,3.91-37.45V114q0-24.74-3.91-35.82a23.45,23.45,0,0,0-14.65-15Q685.41,59.34,662,58V45q21.49,1.95,60.58,2,29.31,0,50.8-2l229.95,354.35V120.55q0-25.39-4.24-37.77a29.35,29.35,0,0,0-16.61-17.91Q970.07,59.32,944,58V45q23.44,1.95,66.44,2,39.09,0,60.58-2Z"/></svg>