<?xml version="1.0" encoding="UTF-8"?><svg id="Vertical_Name" xmlns="http://www.w3.org/2000/svg" viewBox="0 0 255 197.41"><defs><style>.cls-1{stroke-width:0px;}.cls-1,.cls-2{fill:#fff;}.cls-2{stroke:#fff;stroke-miterlimit:10;stroke-width:2px;}</style></defs><g id="Tag"><path class="cls-1" d="M12.2,192.48c-2.42,0-4.42-.74-5.81-2.09l1.25-1.42c1.15,1.08,2.57,1.78,4.58,1.78s3.84-.98,3.84-3.07c0-1.61-.77-2.4-3.6-3.22-3.29-.96-5.33-2.16-5.33-4.78s2.18-4.27,5.35-4.27c2.26,0,3.89.7,5.28,1.9l-1.25,1.34c-1.18-1.03-2.57-1.49-3.96-1.49-1.82,0-3.31.79-3.31,2.45,0,1.42,1.01,2.14,4.15,3.05,2.59.74,4.85,1.82,4.85,4.97,0,2.86-2.21,4.85-6.05,4.85Z"/><path class="cls-1" d="M32.41,185.88c0,3.89-1.92,6.6-5.45,6.6s-5.45-2.59-5.45-6.58,1.92-6.6,5.47-6.6,5.42,2.59,5.42,6.58ZM23.7,185.9c0,3.36,1.08,4.92,3.26,4.92s3.26-1.56,3.26-4.94-1.08-4.92-3.24-4.92-3.29,1.58-3.29,4.94Z"/><path class="cls-1" d="M47.46,174.91l-.65,1.51c-.82-.36-1.75-.53-2.71-.53-1.75,0-2.64.7-2.64,2.09v2.57h4.27l-.22,1.61h-4.06v10.06h-2.04v-10.06h-3v-1.61h3v-2.52c0-2.33,1.99-3.79,4.61-3.79,1.37,0,2.45.26,3.43.67Z"/><path class="cls-1" d="M57.61,192.48c-2.71,0-4.25-1.58-4.25-3.79v-7.54h-2.9v-1.58h2.9v-2.86l2.02-.24v3.1h4.39l-.26,1.58h-4.13v7.51c0,1.39.7,2.14,2.42,2.14.94,0,1.75-.24,2.42-.6l.79,1.37c-.89.58-2.21.91-3.41.91Z"/><path class="cls-1" d="M71.89,192.21l-1.66-9.26-1.78,9.26h-2.78l-2.28-12.65h2.04l1.63,11.4,2.02-9.79h2.38l1.9,9.79,1.63-11.4h1.94l-2.18,12.65h-2.86Z"/><path class="cls-1" d="M89.86,191.06l-.5,1.44c-1.08-.14-1.97-.65-2.3-1.8-.91,1.18-2.33,1.78-3.96,1.78-2.54,0-4.08-1.54-4.08-3.89,0-2.59,2.09-4.06,5.9-4.06h1.87v-1.03c0-1.85-1.13-2.52-3-2.52-.84,0-1.99.19-3.29.65l-.55-1.54c1.56-.55,2.9-.79,4.15-.79,3.14,0,4.73,1.58,4.73,4.08v6.07c0,1.01.31,1.39,1.03,1.61ZM86.79,189.17v-3.24h-1.82c-2.79,0-3.79,1.01-3.79,2.64s.77,2.4,2.42,2.4c1.25,0,2.45-.67,3.19-1.8Z"/><path class="cls-1" d="M104.48,179.56l-.29,4.3h-1.63v-2.71h-.12c-1.94,0-3.34,1.39-4.15,4.18v5.33h2.57v1.56h-6.58v-1.56h1.99v-9.53h-1.99v-1.56h3.5l.38,3c.96-2.06,2.26-3.26,4.54-3.26.7,0,1.22.12,1.78.26Z"/><path class="cls-1" d="M113.84,190.8c1.3,0,2.26-.38,3.38-1.13l.94,1.34c-1.18.91-2.76,1.46-4.32,1.46-3.7,0-5.79-2.64-5.79-6.58s2.14-6.6,5.5-6.6,5.16,2.38,5.16,6.22c0,.43-.02.82-.05,1.08h-8.5c.1,2.93,1.73,4.2,3.67,4.2ZM110.17,185.06h6.58c-.05-2.71-1.25-4.1-3.17-4.1s-3.24,1.32-3.41,4.1Z"/><path class="cls-1" d="M140.05,182.97h6.14v1.7h-6.14v5.86h7.54v1.68h-9.6v-16.54h9.38l-.24,1.73h-7.08v5.57Z"/><path class="cls-1" d="M151.76,179.56h1.73l.17,1.78c1.01-1.3,2.69-2.04,4.18-2.04,2.47,0,3.55,1.39,3.55,3.74v9.17h-2.02v-7.68c0-2.59-.26-3.62-2.16-3.62-1.49,0-2.76,1.1-3.43,2.11v9.19h-2.02v-12.65Z"/><path class="cls-1" d="M177.05,180.14c-1.06.34-2.28.36-3.7.36,1.49.67,2.21,1.75,2.21,3.19,0,2.5-1.75,4.3-4.75,4.3-.84,0-1.34-.07-1.9-.26-.36.29-.65.77-.65,1.22,0,.6.38,1.08,1.68,1.08h2.28c2.54,0,4.46,1.46,4.46,3.43,0,2.47-2.18,3.84-6.02,3.84-4.03,0-5.33-1.25-5.33-3.82h1.82c0,1.49.67,2.18,3.5,2.18s3.98-.72,3.98-2.09c0-1.2-1.22-1.8-2.83-1.8h-2.26c-2.21,0-3.19-1.13-3.19-2.4,0-.79.48-1.61,1.39-2.21-1.44-.74-2.11-1.85-2.11-3.48,0-2.57,2.04-4.39,5.04-4.39,3.17,0,4.27-.43,5.76-1.06l.6,1.9ZM167.72,183.69c0,1.73.94,2.95,3,2.95,1.8,0,2.76-1.1,2.76-2.98s-.94-2.88-2.81-2.88c-2.04,0-2.95,1.2-2.95,2.9Z"/><path class="cls-1" d="M186.97,190.61h3.55v1.61h-9.46v-1.61h3.89v-9.43h-3.77v-1.61h5.78v11.04ZM186.85,175.08c0,.82-.6,1.42-1.49,1.42s-1.44-.6-1.44-1.42.58-1.42,1.44-1.42,1.49.6,1.49,1.42Z"/><path class="cls-1" d="M194.96,179.56h1.73l.17,1.78c1.01-1.3,2.69-2.04,4.18-2.04,2.47,0,3.55,1.39,3.55,3.74v9.17h-2.02v-7.68c0-2.59-.26-3.62-2.16-3.62-1.49,0-2.76,1.1-3.43,2.11v9.19h-2.02v-12.65Z"/><path class="cls-1" d="M214.64,190.8c1.3,0,2.26-.38,3.38-1.13l.94,1.34c-1.18.91-2.76,1.46-4.32,1.46-3.7,0-5.79-2.64-5.79-6.58s2.14-6.6,5.5-6.6,5.16,2.38,5.16,6.22c0,.43-.02.82-.05,1.08h-8.5c.1,2.93,1.73,4.2,3.67,4.2ZM210.96,185.06h6.58c-.05-2.71-1.25-4.1-3.17-4.1s-3.24,1.32-3.41,4.1Z"/><path class="cls-1" d="M229.04,190.8c1.3,0,2.26-.38,3.38-1.13l.94,1.34c-1.18.91-2.76,1.46-4.32,1.46-3.7,0-5.79-2.64-5.79-6.58s2.14-6.6,5.5-6.6,5.16,2.38,5.16,6.22c0,.43-.02.82-.05,1.08h-8.5c.1,2.93,1.73,4.2,3.67,4.2ZM225.36,185.06h6.58c-.05-2.71-1.25-4.1-3.17-4.1s-3.24,1.32-3.41,4.1Z"/><path class="cls-1" d="M248.48,179.56l-.29,4.3h-1.63v-2.71h-.12c-1.94,0-3.34,1.39-4.15,4.18v5.33h2.57v1.56h-6.58v-1.56h1.99v-9.53h-1.99v-1.56h3.5l.38,3c.96-2.06,2.26-3.26,4.54-3.26.7,0,1.22.12,1.78.26Z"/></g><line id="Separator" class="cls-2" x1="3.56" y1="158.41" x2="249.56" y2="158.41"/><g id="Name"><path class="cls-1" d="M38.45,53.2h-6.05l-1.51-25.92c-.43-6.84-.43-15.48-.43-17.93l-8.35,34.92h-6.26L6.91,9.35c.14,2.74.22,11.74-.14,17.93l-1.3,25.92H-.44L2.37,3.59h8.71l8.07,33.99L26.85,3.59h8.79l2.81,49.61Z"/><path class="cls-1" d="M78.12,49.75l-1.51,4.32c-3.24-.43-5.9-1.94-6.91-5.4-2.74,3.53-6.98,5.33-11.88,5.33-7.63,0-12.24-4.61-12.24-11.67,0-7.78,6.26-12.17,17.71-12.17h5.62v-3.1c0-5.54-3.38-7.56-9-7.56-2.52,0-5.98.58-9.87,1.94l-1.66-4.61c4.68-1.66,8.71-2.38,12.46-2.38,9.43,0,14.19,4.75,14.19,12.24v18.22c0,3.02.94,4.18,3.1,4.83ZM68.9,44.06v-9.72h-5.47c-8.35,0-11.38,3.02-11.38,7.92s2.3,7.2,7.27,7.2c3.74,0,7.34-2.02,9.58-5.4Z"/><path class="cls-1" d="M110.95,53.99c-8.14,0-12.75-4.75-12.75-11.38v-22.61h-8.71v-4.75h8.71V6.69l6.05-.72v9.29h13.18l-.79,4.75h-12.38v22.54c0,4.18,2.09,6.41,7.27,6.41,2.81,0,5.26-.72,7.27-1.8l2.38,4.1c-2.66,1.73-6.62,2.74-10.22,2.74Z"/><path class="cls-1" d="M140.25,20.51c3.02-3.96,7.63-6.05,12.17-6.05,7.42,0,10.66,4.18,10.66,11.23v27.51h-6.05v-27.43c0-4.54-2.09-6.48-6.62-6.48-4.25,0-8.14,3.31-10.15,6.26v27.65h-6.05V.06l6.05-.65v21.1Z"/><path class="cls-1" d="M193.24,48.95c3.89,0,6.77-1.15,10.15-3.38l2.81,4.03c-3.53,2.74-8.28,4.39-12.96,4.39-11.09,0-17.35-7.92-17.35-19.73s6.41-19.8,16.49-19.8,15.48,7.13,15.48,18.65c0,1.3-.07,2.45-.14,3.24h-25.49c.29,8.79,5.18,12.6,11.02,12.6ZM182.22,31.74h19.73c-.14-8.14-3.74-12.31-9.5-12.31s-9.72,3.96-10.22,12.31Z"/><path class="cls-1" d="M240.18,53.2l-4.97-27.79-5.33,27.79h-8.35l-6.84-37.95h6.12l4.9,34.2,6.05-29.38h7.13l5.69,29.38,4.9-34.2h5.83l-6.55,37.95h-8.57Z"/><path class="cls-1" d="M8.35,96.04c.14,2.16.86,11.09.86,18.72v24.84H3.38v-49.61h8.5l17.79,43.78c-.07-2.02-.86-10.01-.86-18.94v-24.84h5.83v49.61h-8.78l-17.5-43.56Z"/><path class="cls-1" d="M78.55,120.59c0,11.67-5.76,19.8-16.35,19.8s-16.35-7.78-16.35-19.73,5.76-19.8,16.42-19.8,16.27,7.78,16.27,19.73ZM52.41,120.66c0,10.08,3.24,14.76,9.79,14.76s9.79-4.68,9.79-14.83-3.24-14.76-9.72-14.76-9.87,4.75-9.87,14.83Z"/><path class="cls-1" d="M121.96,101.65l-.86,12.89h-4.9v-8.14h-.36c-5.83,0-10.01,4.18-12.46,12.53v15.99h7.71v4.68h-19.73v-4.68h5.98v-28.59h-5.98v-4.68h10.51l1.15,9c2.88-6.19,6.77-9.79,13.61-9.79,2.09,0,3.67.36,5.33.79Z"/><path class="cls-1" d="M166.53,111.38v28.23h-5.54v-27.22c0-4.83-.22-6.77-2.95-6.77-2.3,0-4.54,1.3-6.62,4.54v29.45h-5.62v-27.22c0-4.83-.22-6.77-2.95-6.77-2.38,0-4.54,1.3-6.62,4.54v29.45h-5.54v-37.95h4.68l.43,4.46c2.02-2.95,4.39-5.26,8.21-5.26,2.88,0,5.69,1.15,6.84,5.04,2.09-3.02,4.54-5.04,8.35-5.04s7.34,1.8,7.34,10.51Z"/><path class="cls-1" d="M207.71,136.15l-1.51,4.32c-3.24-.43-5.9-1.94-6.91-5.4-2.74,3.53-6.98,5.33-11.88,5.33-7.63,0-12.24-4.61-12.24-11.67,0-7.78,6.26-12.17,17.71-12.17h5.62v-3.1c0-5.54-3.38-7.56-9-7.56-2.52,0-5.98.58-9.87,1.94l-1.66-4.61c4.68-1.66,8.71-2.38,12.46-2.38,9.43,0,14.18,4.75,14.18,12.24v18.22c0,3.02.94,4.18,3.1,4.82ZM198.5,130.46v-9.72h-5.47c-8.35,0-11.38,3.02-11.38,7.92s2.3,7.2,7.27,7.2c3.74,0,7.34-2.02,9.58-5.4Z"/><path class="cls-1" d="M220.6,101.65h5.18l.5,5.33c3.02-3.89,8.06-6.12,12.53-6.12,7.42,0,10.66,4.18,10.66,11.23v27.51h-6.05v-23.04c0-7.78-.79-10.87-6.48-10.87-4.46,0-8.28,3.31-10.3,6.34v27.58h-6.05v-37.95Z"/></g></svg>